<svg width="256" height="256" viewBox="0 0 256 256" fill="none" xmlns="http://www.w3.org/2000/svg">
<path d="M78.6719 141.5H82.2719V168H30.5719V164.8C32.3719 164.2 34.1052 163.7 35.7719 163.3C37.5052 162.9 39.2052 162.567 40.8719 162.3L41.7719 108.8L30.5719 106.6V103H63.1719V106.2C61.4385 106.733 59.5719 107.233 57.5719 107.7C55.5719 108.1 53.4719 108.433 51.2719 108.7V161.6H74.6719L78.6719 141.5ZM132.852 134.2C138.252 135.2 142.418 137.133 145.352 140C148.352 142.8 149.852 146.233 149.852 150.3C149.852 155.767 147.685 160.1 143.352 163.3C139.085 166.433 133.118 168 125.452 168H90.7516V164.8C91.8182 164.267 93.1849 163.8 94.8516 163.4C96.5182 163 98.5849 162.633 101.052 162.3L101.952 108.8L90.7516 106.6V103H126.452C132.785 103 137.785 104.367 141.452 107.1C145.118 109.833 146.952 113.467 146.952 118C146.952 121.733 145.685 125.067 143.152 128C140.618 130.867 137.185 132.933 132.852 134.2ZM111.452 165.8L107.252 161.6H129.652C132.852 160.8 135.318 159.4 137.052 157.4C138.785 155.4 139.652 152.967 139.652 150.1C139.652 146.433 138.285 143.533 135.552 141.4C132.885 139.2 129.285 138.1 124.752 138.1H110.452V131.7H126.452C133.385 129.1 136.852 125.167 136.852 119.9C136.852 116.633 135.718 114.1 133.452 112.3C131.252 110.433 128.152 109.5 124.152 109.5H107.252L111.452 105.3V165.8ZM216.016 162.3L225.416 164.4V168H206.616L203.516 150C202.849 146.333 201.682 143.767 200.016 142.3C198.416 140.833 195.916 140.1 192.516 140.1H176.116V133.7H196.916C200.316 132.033 202.782 130.167 204.316 128.1C205.916 126.033 206.716 123.633 206.716 120.9C206.716 117.3 205.582 114.5 203.316 112.5C201.049 110.5 197.916 109.5 193.916 109.5H180.616V162.4L190.916 164.4V168H159.916V164.8C160.982 164.267 162.349 163.8 164.016 163.4C165.749 162.933 167.816 162.567 170.216 162.3L171.216 108.8L159.916 106.6V103H195.916C202.249 103 207.316 104.467 211.116 107.4C214.982 110.333 216.916 114.2 216.916 119C216.916 123.067 215.549 126.7 212.816 129.9C210.149 133.1 206.649 135.333 202.316 136.6C205.516 137.4 208.016 138.9 209.816 141.1C211.682 143.3 212.982 146.367 213.716 150.3L216.016 162.3Z" fill="white"/>
</svg>
